<?xml version="1.0" encoding="utf-8"?>
<!-- Generator: Adobe Illustrator 27.5.0, SVG Export Plug-In . SVG Version: 6.00 Build 0)  -->
<svg version="1.1" xmlns="http://www.w3.org/2000/svg" xmlns:xlink="http://www.w3.org/1999/xlink" x="0px" y="0px"
	 viewBox="0 0 500 500" style="enable-background:new 0 0 500 500;" xml:space="preserve">
<g id="Background_Simple">
	<g>
		<path style="fill:#92E3A9;" d="M239.63,28.663c-40.466,8.141-86.456,30.652-105.255,69.682
			c-28.411,58.972-79.518,58.376-92.652,170.047c-2.049,17.411-2.178,33.787-0.647,49.094c0.822,8.229,2.134,16.152,3.89,23.754
			c15.87,69.008,68.227,112.064,128.223,124.55c78.907,16.435,125.682-32.966,153.643-65.464
			c27.961-32.497,120.892-62.179,134.665-171.858c2.093-16.723,2.477-33.681,0.693-50.459
			c-4.056-38.296-20.054-79.128-48.703-105.954c-2.152-2.014-4.373-3.962-6.651-5.853C362.253,29.304,294.798,17.562,239.63,28.663z
			"/>
		<path style="opacity:0.7;fill:#FFFFFF;" d="M239.63,28.663c-40.466,8.141-86.456,30.652-105.255,69.682
			c-28.411,58.972-79.518,58.376-92.652,170.047c-2.049,17.411-2.178,33.787-0.647,49.094c0.822,8.229,2.134,16.152,3.89,23.754
			c15.87,69.008,68.227,112.064,128.223,124.55c78.907,16.435,125.682-32.966,153.643-65.464
			c27.961-32.497,120.892-62.179,134.665-171.858c2.093-16.723,2.477-33.681,0.693-50.459
			c-4.056-38.296-20.054-79.128-48.703-105.954c-2.152-2.014-4.373-3.962-6.651-5.853C362.253,29.304,294.798,17.562,239.63,28.663z
			"/>
	</g>
</g>
<g id="Line">
	<g>
		
			<line style="fill:none;stroke:#263238;stroke-linecap:round;stroke-linejoin:round;stroke-miterlimit:10;" x1="438.934" y1="462.377" x2="454.633" y2="462.377"/>
		
			<line style="fill:none;stroke:#263238;stroke-linecap:round;stroke-linejoin:round;stroke-miterlimit:10;" x1="47.93" y1="462.377" x2="430.711" y2="462.377"/>
	</g>
</g>
<g id="Arrows">
	<g>
		<polyline style="fill:none;stroke:#263238;stroke-linecap:round;stroke-linejoin:round;stroke-miterlimit:10;" points="
			412.319,351.646 367.563,363.638 377.038,373.113 325.862,424.289 351.202,449.629 387.369,413.462 		"/>
		<polyline style="fill:none;stroke:#263238;stroke-linecap:round;stroke-linejoin:round;stroke-miterlimit:10;" points="
			391.673,409.158 402.378,398.453 411.853,407.928 428.064,347.427 417.106,350.363 		"/>
	</g>
	<polyline style="fill:none;stroke:#263238;stroke-linecap:round;stroke-linejoin:round;stroke-miterlimit:10;" points="
		110.419,103.422 90.037,123.805 115.377,149.145 166.553,97.969 176.028,107.443 192.239,46.943 131.738,63.154 141.213,72.629 
		115.652,98.189 	"/>
	<polygon style="fill:none;stroke:#263238;stroke-linecap:round;stroke-linejoin:round;stroke-miterlimit:10;" points="
		436.143,208.292 444.394,177.499 413.6,185.75 418.423,190.573 392.376,216.62 405.273,229.517 431.32,203.47 	"/>
	<polygon style="fill:none;stroke:#263238;stroke-linecap:round;stroke-linejoin:round;stroke-miterlimit:10;" points="
		252.857,387.695 261.108,356.902 230.315,365.153 235.137,369.975 209.09,396.022 221.988,408.92 248.035,382.872 	"/>
	<polyline style="fill:none;stroke:#263238;stroke-linecap:round;stroke-linejoin:round;stroke-miterlimit:10;" points="
		81.081,389.097 90.571,379.608 95.393,384.43 103.644,353.637 72.851,361.888 77.673,366.71 51.626,392.758 64.523,405.655 
		77.315,392.863 	"/>
	<polyline style="fill:none;stroke:#263238;stroke-linecap:round;stroke-linejoin:round;stroke-miterlimit:10;" points="
		104.045,250.872 113.534,241.382 118.357,246.205 126.608,215.411 95.814,223.663 100.637,228.485 74.59,254.532 87.487,267.43 
		100.279,254.638 	"/>
	<polyline style="fill:none;stroke:#263238;stroke-linecap:round;stroke-linejoin:round;stroke-miterlimit:10;" points="
		366.69,125.977 376.179,116.487 381.002,121.309 389.253,90.516 358.46,98.767 363.282,103.59 337.235,129.637 350.132,142.534 
		362.924,129.743 	"/>
</g>
<g id="Character_2">
	<g>
		<path style="fill:#263238;stroke:#263238;stroke-linecap:round;stroke-linejoin:round;stroke-miterlimit:10;" d="M332.379,293.133
			c0,0-11.88-7.354-14.03-5.883c-2.15,1.471-1.697,5.091-1.697,5.091s-7.694,1.81-9.052,3.96c-1.358,2.15-1.018,3.168-2.489,4.186
			c-1.471,1.018-6.902,2.602-4.865,9.278c2.037,6.675,4.299,4.299,0.905,7.92c-3.394,3.621-3.168,8.825-1.245,11.088
			c1.924,2.263-7.581,14.483-12.446,17.538s-9.165,7.015-9.617,11.201c-0.453,4.186,5.883,8.599,5.657,9.504
			c-0.226,0.905-3.847,3.734-2.263,8.712c1.584,4.978,6.223,7.241,18.329,11.201c12.107,3.96,25.344,2.15,37.112,0
			c11.767-2.15,13.351-8.146,12.333-11.088c-1.018-2.942,0.566-7.241,2.489-7.92c1.923-0.679,7.92-3.621,5.205-10.183
			c-2.716-6.562-8.146-17.538-11.201-23.76c-3.055-6.223-6.902-13.012-6.223-15.048c0.679-2.037,5.205-6.223,3.508-12.446
			C341.091,300.261,333.284,294.038,332.379,293.133z"/>
		<path style="fill:#263238;stroke:#263238;stroke-linecap:round;stroke-linejoin:round;stroke-miterlimit:10;" d="M352.206,462.377
			c-2.954-16.799-12.731-50.18-12.731-50.18h-63.007c0,0-2.445,6.207-4.514,18.808c-1.796,10.939-2.741,27.255-2.959,31.372H352.206
			z"/>
		<path style="fill:#92E3A9;stroke:#263238;stroke-linecap:round;stroke-linejoin:round;stroke-miterlimit:10;" d="M311.638,328.689
			c0,0-9.028-4.514-9.592-4.702c-0.564-0.188-14.482-7.523-14.482-7.523l8.276-42.506l-9.216-1.505c0,0-11.097,26.707-13.918,34.795
			c-2.821,8.087-6.207,19.184-5.643,21.441c0.564,2.257,5.831,4.89,7.711,6.019s4.326,2.821,9.028,5.078
			c4.702,2.257,6.583,3.385,6.583,3.385s-1.693,11.661-1.505,18.432c0.188,6.771,0.564,21.441,0.188,22.758
			c-0.376,1.316-15.046,28.776-15.046,28.776s5.266,5.266,11.849,9.78c6.583,4.514,16.363,8.087,16.363,8.087l4.514-7.147
			l0.564,7.711c0,0,1.129,2.821,18.244-1.881c17.115-4.702,19.184-7.523,19.184-7.523l-10.909-34.983l5.078-17.868l5.078-17.68
			c0,0,20.689-13.542,25.579-17.679c4.89-4.138,9.592-10.533,8.652-12.79c-0.94-2.257-23.886-48.525-23.886-48.525l-7.711,2.633
			l7.523,44.199c0,0-5.831,4.514-9.404,6.583c-3.574,2.069-7.523,3.573-7.523,3.573l-8.652,0.376L311.638,328.689z"/>
		<path style="fill:#FFFFFF;stroke:#263238;stroke-linecap:round;stroke-linejoin:round;stroke-miterlimit:10;" d="M304.867,343.171
			c0,0-0.376,10.156,0.564,17.115c0.94,6.959,5.831,19.56,5.831,19.56s10.909-15.046,13.542-21.817
			c2.633-6.771,3.385-18.244,3.385-18.244s0-4.702-1.316-8.652c-1.317-3.95-8.464-4.514-11.285-4.138s-6.959,1.881-9.028,6.959
			C304.491,339.034,304.867,343.171,304.867,343.171z"/>
		<path style="fill:#FFFFFF;stroke:#263238;stroke-linecap:round;stroke-linejoin:round;stroke-miterlimit:10;" d="M309.184,326.85
			c0,0-3.489,5.5-6.622,9.723c-3.133,4.223-5.449,8.855-5.449,8.855s7.356,0,9.536,0.409c2.18,0.409,11.852,1.226,11.852,1.226
			s6.13,2.043,7.356,2.997c1.226,0.954,8.037,4.904,8.037,4.904s-1.635-19.072-3.133-23.431c-1.499-4.359-4.359-5.722-4.904-5.858
			C325.313,325.538,311.72,325.164,309.184,326.85z"/>
		<path style="fill:#FFFFFF;stroke:#263238;stroke-linecap:round;stroke-linejoin:round;stroke-miterlimit:10;" d="M309.184,326.85
			c0,0,0.462,4.682,0.462,7.952s-0.136,10.353,0.681,14.031c0.817,3.678,2.452,9.127,3.814,8.582s9.808-13.487,10.898-18.799
			c1.09-5.313,2.134-15.387,2.134-15.387S313.49,328.57,309.184,326.85z"/>
		<g>
			<path style="fill:#FFFFFF;stroke:#263238;stroke-linecap:round;stroke-linejoin:round;stroke-miterlimit:10;" d="
				M317.557,294.151c0,0-10.183,6.902-10.749,8.146s-0.905,5.091-1.245,5.997c-0.339,0.905-1.358,4.526-0.566,8.146
				s2.489,8.599,4.186,10.409c1.697,1.81,4.639,3.281,7.241,2.829c2.602-0.453,10.409-6.336,10.749-6.449
				c0.339-0.113,0.113-4.186,1.584-9.391c1.471-5.205,1.584-7.128,0.113-9.165c-1.471-2.037-5.205-3.281-8.147-6.336
				c-2.942-3.055-2.942-3.055-2.942-3.055L317.557,294.151z"/>
			<path style="fill:none;stroke:#263238;stroke-linecap:round;stroke-linejoin:round;stroke-miterlimit:10;" d="M315.521,303.316
				c0,0,0.226,2.489,0.113,3.055s-4.978,4.186-4.865,4.639c0.113,0.453,2.602,2.376,3.168,2.489"/>
			<path style="fill:none;stroke:#263238;stroke-linecap:round;stroke-linejoin:round;stroke-miterlimit:10;" d="M310.186,315.434
				L310.186,315.434c1.98,1.126,4.378,1.241,6.457,0.309l0.276-0.124"/>
			<path style="fill:#263238;" d="M322.265,307.352c-0.14,0.853-0.61,1.487-1.05,1.415c-0.44-0.072-0.683-0.822-0.543-1.676
				c0.14-0.853,0.61-1.487,1.05-1.415C322.161,305.749,322.405,306.499,322.265,307.352z"/>
			<path style="fill:#263238;" d="M312.249,306.292c-0.14,0.853-0.61,1.487-1.05,1.415c-0.44-0.072-0.683-0.822-0.544-1.676
				c0.14-0.853,0.61-1.487,1.05-1.415C312.145,304.689,312.389,305.439,312.249,306.292z"/>
			<path style="fill:none;stroke:#263238;stroke-linecap:round;stroke-linejoin:round;stroke-miterlimit:10;" d="M318.576,302.976
				c0,0,4.526-2.15,6.789,1.471"/>
			<path style="fill:none;stroke:#263238;stroke-linecap:round;stroke-linejoin:round;stroke-miterlimit:10;" d="M312.879,302.43
				c0,0-1.445-0.679-4.047,0"/>
		</g>
		<path style="fill:#FFFFFF;stroke:#263238;stroke-linecap:round;stroke-linejoin:round;stroke-miterlimit:10;" d="M287.564,316.464
			c0,0,0.188,10.909-2.257,13.918"/>
		
			<line style="fill:#FFFFFF;stroke:#263238;stroke-linecap:round;stroke-linejoin:round;stroke-miterlimit:10;" x1="290.385" y1="343.171" x2="290.009" y2="332.075"/>
		
			<line style="fill:#FFFFFF;stroke:#263238;stroke-linecap:round;stroke-linejoin:round;stroke-miterlimit:10;" x1="343.988" y1="351.635" x2="344.928" y2="342.231"/>
		<path style="fill:#FFFFFF;stroke:#263238;stroke-linecap:round;stroke-linejoin:round;stroke-miterlimit:10;" d="M354.144,319.473
			c0,0,0.752,10.344,1.505,11.285"/>
		<path style="fill:#FFFFFF;stroke:#263238;stroke-linecap:round;stroke-linejoin:round;stroke-miterlimit:10;" d="M346.621,275.274
			c0,0-2.821-9.968-2.633-10.721c0.188-0.752,3.197-1.693,3.762-1.693c0.564,0,21.253,0,21.253,0s-4.326,3.009-5.642,4.514
			c-1.317,1.505-6.019,1.128-7.711,1.128c-1.693,0-1.693,0-1.693,0l0.376,4.138L346.621,275.274z"/>
		<path style="fill:#FFFFFF;stroke:#263238;stroke-linecap:round;stroke-linejoin:round;stroke-miterlimit:10;" d="M295.839,273.958
			c0,0,2.069-7.899,2.069-9.216c0-1.316-0.564-3.009-2.069-3.385c-1.505-0.376-22.57,0-22.57,0s4.138,4.138,6.583,4.326
			c2.445,0.188,8.464,1.693,8.464,1.693l-1.693,5.078L295.839,273.958z"/>
	</g>
</g>
<g id="Character_1">
	<g>
		<g>
			<path style="fill:#FFFFFF;stroke:#263238;stroke-linecap:round;stroke-linejoin:round;stroke-miterlimit:10;" d="
				M150.239,296.294c0,0,6.451,3.715,9.384,4.105s7.233-2.346,7.82-0.978s-0.195,6.647-0.195,6.647s7.429,7.624,7.429,9.384
				c0,1.759-1.955,3.91-4.692,5.669c-2.737,1.759-7.038,5.083-7.038,5.083l1.173,5.083l-19.354,0.978c0,0-4.888-7.82-4.888-15.444
				C139.878,309.197,150.239,296.294,150.239,296.294z"/>
			<path style="fill:#263238;" d="M158.364,305.146c-0.15,0.462-1.021,0.593-1.945,0.293c-0.924-0.3-1.552-0.918-1.402-1.38
				s1.021-0.593,1.945-0.293C157.886,304.066,158.514,304.684,158.364,305.146z"/>
			<path style="fill:none;stroke:#263238;stroke-linecap:round;stroke-linejoin:round;stroke-miterlimit:10;" d="M153.563,300.4
				c0,0-2.15,1.955-0.587,5.083"/>
			<path style="fill:none;stroke:#263238;stroke-linecap:round;stroke-linejoin:round;stroke-miterlimit:10;" d="M168.616,309.588
				c0,0-1.368,1.173-3.519,0.978"/>
		</g>
		<g>
			<path style="fill:#92E3A9;stroke:#263238;stroke-linecap:round;stroke-linejoin:round;stroke-miterlimit:10;" d="
				M199.294,263.027c0,0,4.887,1.368,5.474,2.15c0.587,0.782,9.579,62.755,9.189,64.319c-0.391,1.564-32.992,23.608-37.684,27.714
				c-4.692,4.105-7.852-4.221-7.852-4.221l-5.083-8.211l31.265-19.191l0.391-60.409l-4.105-2.15H199.294z"/>
			<path style="fill:#FFFFFF;stroke:#263238;stroke-linecap:round;stroke-linejoin:round;stroke-miterlimit:10;" d="
				M204.768,265.177c-0.587-0.782-5.474-2.15-5.474-2.15h-8.406l4.105,2.15l-0.218,33.707l0.805,2.069l14.582-0.889
				C207.771,283.322,205.08,265.593,204.768,265.177z"/>
			
				<line style="fill:none;stroke:#263238;stroke-linecap:round;stroke-linejoin:round;stroke-miterlimit:10;" x1="211.22" y1="309.555" x2="194.993" y2="308.187"/>
		</g>
		<path style="fill:#263238;stroke:#263238;stroke-linecap:round;stroke-linejoin:round;stroke-miterlimit:10;" d="M186.231,462.377
			c-0.336-2.535-0.911-6.393-1.82-11.091c-1.658-8.568-4.146-28.469-4.146-28.469l-51.963-7.739c0,0-4.422,6.91-8.292,16.031
			c-3.445,8.12-5.574,27.181-6,31.269H186.231z"/>
		<g>
			<path style="fill:#92E3A9;stroke:#263238;stroke-linecap:round;stroke-linejoin:round;stroke-miterlimit:10;" d="
				M146.329,330.897l37.325-12.74l6.256-46.92c0,0-12.903-3.714-14.467-4.301c-1.564-0.587-4.887-5.083-4.887-5.083
				s25.219,0.782,26.979,1.564c1.76,0.782,2.346,4.888,2.346,6.647c0,1.759,1.173,58.063,0.782,59.823
				c-0.391,1.759-27.103,18.428-27.103,18.428s6.981,17.576,9.718,24.614c2.737,7.038-1.955,24.242-1.955,24.242l1.955,34.603
				c0,0-3.519,3.519-4.497,4.497c-0.977,0.977-2.346,1.955-2.346,1.955l-0.391-9.579l-4.692,11.535c0,0-10.361-2.151-20.918-7.82
				c-10.557-5.669-25.806-15.053-25.806-15.053l12.707-25.219l-5.083-34.017c0,0-2.933-12.707-2.542-18.377
				C130.103,334.025,146.329,330.897,146.329,330.897z"/>
			<path style="fill:#FFFFFF;stroke:#263238;stroke-linecap:round;stroke-linejoin:round;stroke-miterlimit:10;" d="
				M200.425,300.377c-0.246-14.648-0.544-29.425-0.544-30.313c0-1.76-0.587-5.865-2.346-6.647
				c-1.759-0.782-26.979-1.564-26.979-1.564s3.324,4.496,4.887,5.083c1.564,0.587,14.467,4.301,14.467,4.301l-3.446,25.847
				L200.425,300.377z"/>
			
				<line style="fill:none;stroke:#263238;stroke-linecap:round;stroke-linejoin:round;stroke-miterlimit:10;" x1="185.414" y1="307.209" x2="200.272" y2="310.728"/>
			
				<line style="fill:#FFFFFF;stroke:#263238;stroke-linecap:round;stroke-linejoin:round;stroke-miterlimit:10;" x1="174.285" y1="347.906" x2="151.608" y2="361.591"/>
			
				<line style="fill:#FFFFFF;stroke:#263238;stroke-linecap:round;stroke-linejoin:round;stroke-miterlimit:10;" x1="169.017" y1="351.176" x2="150.826" y2="372.539"/>
		</g>
		<path style="fill:#263238;stroke:#263238;stroke-linecap:round;stroke-linejoin:round;stroke-miterlimit:10;" d="M149.653,316.43
			c-0.328-0.524,1.759-5.865,1.759-11.73c0-5.865,1.173-12.903-1.564-13.489c-2.737-0.586-15.835,0.195-20.918,5.474
			c-5.083,5.279-10.362,13.88-8.993,21.896c1.368,8.015,3.519,8.797,3.519,8.797s-7.233,5.083-7.038,8.211
			c0.195,3.128,6.06,5.865,6.06,5.865s-9.775,1.368-8.211,8.016c1.564,6.647,7.038,7.233,7.038,7.233s-7.624,3.519-2.346,7.429
			c5.279,3.91,11.926,4.301,14.076,1.955c2.15-2.346,1.564-3.715,1.564-3.715s7.429,1.955,11.925-0.586
			c4.497-2.542,3.324-10.948,1.955-12.316s0.195-2.15,3.324-5.669c3.128-3.519,2.932-8.211-0.782-10.948
			c-3.715-2.737-4.692-1.759-3.128-4.496C149.457,325.619,151.608,319.558,149.653,316.43z"/>
		<path style="fill:#FFFFFF;stroke:#263238;stroke-linecap:round;stroke-linejoin:round;stroke-miterlimit:10;" d="M151.999,316.821
			c0,0-7.429-3.324-8.406,0.195c-0.978,3.519,5.083,6.451,6.451,6.451s3.714-1.173,3.714-1.173"/>
	</g>
</g>
<g id="Character_3_1_">
	<g>
		<path style="fill:#92E3A9;stroke:#263238;stroke-linecap:round;stroke-linejoin:round;stroke-miterlimit:10;" d="M242.264,100.831
			c0,0-8.07,7.576-8.729,11.858c-0.659,4.282-0.329,35.079-0.329,35.079l-9.058,25.197c0,0,5.599,2.964,20.092,4.282
			c14.493,1.317,33.926-1.153,33.926-1.153s-7.905-27.338-7.74-29.15c0.165-1.812,5.105-7.905,5.599-12.846
			c0.494-4.941,0.659-10.375,0.659-10.375s19.763,2.964,20.751,2.8c0.988-0.165,2.8-1.812,2.8-3.788
			c0-1.976-5.864-46.196-5.864-46.196l-9.065,1.451l-0.222,28.277c0,0-9.223-3.129-11.199-4.282
			c-1.976-1.153-3.788-3.129-7.411-3.788c-3.623-0.659-10.705-0.824-10.705-0.824S244.076,98.196,242.264,100.831z"/>
		<polyline style="fill:none;stroke:#263238;stroke-linecap:round;stroke-linejoin:round;stroke-miterlimit:10;" points="
			275.367,113.512 276.684,123.723 280.802,109.395 		"/>
		
			<line style="fill:none;stroke:#263238;stroke-linecap:round;stroke-linejoin:round;stroke-miterlimit:10;" x1="285.083" y1="106.266" x2="285.248" y2="110.877"/>
		<path style="fill:none;stroke:#263238;stroke-linecap:round;stroke-linejoin:round;stroke-miterlimit:10;" d="M241.111,127.346
			c0,0,8.729,5.105,12.022,6.258"/>
		<path style="fill:none;stroke:#263238;stroke-linecap:round;stroke-linejoin:round;stroke-miterlimit:10;" d="M241.111,127.346
			c0,0,8.234,10.54,9.881,11.199"/>
		<path style="fill:#92E3A9;stroke:#263238;stroke-linecap:round;stroke-linejoin:round;stroke-miterlimit:10;" d="M254.482,107.18
			c0,0-3.818-7.996-6.947-8.326s-7.74,0.988-9.058,2.47c-1.318,1.482-32.608,27.668-33.103,29.973
			c-0.494,2.306-9.717,37.549-9.717,37.549l7.411,2.306l16.304-30.467l38.208-23.715"/>
		
			<line style="fill:none;stroke:#263238;stroke-linecap:round;stroke-linejoin:round;stroke-miterlimit:10;" x1="196.81" y1="164.401" x2="205.045" y2="167.201"/>
		
			<line style="fill:none;stroke:#263238;stroke-linecap:round;stroke-linejoin:round;stroke-miterlimit:10;" x1="285.578" y1="81.398" x2="294.306" y2="80.41"/>
		<g>
			<path style="fill:#263238;" d="M205.874,193.44l-2.484-0.413l1.046-6.275c0.107-0.644-0.286-1.262-0.915-1.437l-10.673-2.979
				c-0.663-0.184-1.367,0.202-1.565,0.865l-1.539,5.185l-2.415-0.717l1.539-5.185c0.585-1.973,2.674-3.129,4.657-2.574l10.672,2.979
				c1.871,0.521,3.042,2.36,2.722,4.277L205.874,193.44z"/>
		</g>
		<path style="fill:#FFFFFF;stroke:#263238;stroke-linecap:round;stroke-linejoin:round;stroke-miterlimit:10;" d="M203.068,171.153
			c0,0,1.106,7.464,1.362,7.849c0.256,0.384-0.897,7.687-1.025,8.455c-0.128,0.769-0.512,1.409-1.794,1.281
			s-2.434-2.306-2.434-2.306s-5.253-1.666-6.662-3.203c-1.409-1.537,3.141-14.382,3.141-14.382L203.068,171.153z"/>
		<g>
			<polygon style="fill:#C4C4C4;stroke:#263238;stroke-linecap:round;stroke-linejoin:round;stroke-miterlimit:10;" points="
				172.575,182.783 222.047,195.729 216.019,240.337 159.158,227.797 			"/>
			
				<line style="fill:none;stroke:#263238;stroke-linecap:round;stroke-linejoin:round;stroke-miterlimit:10;" x1="167.765" y1="198.587" x2="219.986" y2="212.736"/>
		</g>
		<path style="fill:#263238;stroke:#263238;stroke-linecap:round;stroke-linejoin:round;stroke-miterlimit:10;" d="M275.011,192.996
			c0,0,0,14.622-5.249,35.618c-5.249,20.996-6.561,26.058-7.499,26.62c-0.937,0.562-52.49,0-52.49,0s3.562-9.373,4.312-10.123
			c0.75-0.75,4.124-0.937,4.124-0.937l27.182-5.249c0,0-2.062-32.619-2.062-35.806s-0.187-4.124-0.187-4.124l-2.999-5.062
			L275.011,192.996z"/>
		<g>
			<path style="fill:#FFFFFF;stroke:#263238;stroke-linecap:round;stroke-linejoin:round;stroke-miterlimit:10;" d="
				M292.142,240.232c0,0,0.855,4.134,1.14,4.562c0.285,0.428,10.122,9.836,10.122,9.836s5.987,2.708,5.417,3.706
				c-0.57,0.998-4.419,1.853-8.268,1.711c-3.849-0.143-11.832-0.998-14.968-1.996s-8.553-3.564-11.975-4.99
				c-3.421-1.425-1.711-3.279-0.428-6.13c1.283-2.851,4.419-9.694,4.419-9.694L292.142,240.232z"/>
			<path style="fill:#FFFFFF;stroke:#263238;stroke-linecap:round;stroke-linejoin:round;stroke-miterlimit:10;" d="
				M308.821,258.337c0.091-0.16,0.001-0.367-0.193-0.597c-3.844,0.724-12.266,1.243-18.054-0.686
				c-5.533-1.844-14.979-6.391-18.392-8.064c-0.826,1.74-1.09,3.023,1.428,4.072c3.421,1.426,8.838,3.992,11.975,4.99
				c3.136,0.998,11.119,1.853,14.968,1.996C304.402,260.19,308.251,259.335,308.821,258.337z"/>
		</g>
		<g>
			<path style="fill:#263238;stroke:#263238;stroke-linecap:round;stroke-linejoin:round;stroke-miterlimit:10;" d="
				M228.902,174.716c0,0,0.687,13.399,7.215,18.381c6.528,4.982,10.479,5.497,22.332,5.497c11.853,0,32.467-4.123,32.467-4.123
				l-15.289,46.21c0,0,5.154,1.546,8.246,1.546s8.246-0.687,8.246-0.687s13.399-25.596,17.694-37.277
				c4.294-11.681,9.276-24.909,8.074-27.829c-1.203-2.92-16.148-6.356-31.265-6.528c-15.117-0.172-39.167,7.559-39.167,7.559
				S232.338,175.403,228.902,174.716z"/>
			<path style="fill:none;stroke:#FFFFFF;stroke-linecap:round;stroke-linejoin:round;stroke-miterlimit:10;" d="M248.935,198.522
				c0,0,10.766,2.833,22.099,0"/>
			
				<line style="fill:none;stroke:#FFFFFF;stroke-linecap:round;stroke-linejoin:round;stroke-miterlimit:10;" x1="292.634" y1="194.128" x2="304.831" y2="187.6"/>
			<path style="fill:none;stroke:#FFFFFF;stroke-linecap:round;stroke-linejoin:round;stroke-miterlimit:10;" d="M305.861,210.275
				c0,0-15.46,15.976-23.362,21.645"/>
		</g>
		<path style="fill:none;stroke:#FFFFFF;stroke-linecap:round;stroke-linejoin:round;stroke-miterlimit:10;" d="M292.634,227.969
			c0,0-10.822,7.73-13.743,8.933"/>
		<path style="fill:#FFFFFF;stroke:#263238;stroke-linecap:round;stroke-linejoin:round;stroke-miterlimit:10;" d="M214.085,245.112
			l-5.811-1.312c0,0-8.623-5.062-10.311-4.499c-1.687,0.562-4.499,4.312-5.812,5.624c-1.312,1.312-4.874,5.062-4.874,5.062
			l-6.395,5.104h29.245L214.085,245.112z"/>
		<path style="fill:#FFFFFF;stroke:#263238;stroke-linecap:round;stroke-linejoin:round;stroke-miterlimit:10;" d="M194.582,245.375
			c2.736-3.343,4.62-5.035,5.435-5.703c-0.918-0.328-1.67-0.5-2.054-0.372c-1.687,0.562-4.499,4.312-5.811,5.624
			c-1.312,1.312-4.874,5.062-4.874,5.062l-6.395,5.104h4.333C187.622,252.803,191.945,248.597,194.582,245.375z"/>
		<g>
			<polygon style="fill:none;stroke:#263238;stroke-linecap:round;stroke-linejoin:round;stroke-miterlimit:10;" points="
				263.18,106.924 269.603,102.478 264.333,98.855 			"/>
			<polygon style="fill:#92E3A9;stroke:#263238;stroke-linecap:round;stroke-linejoin:round;stroke-miterlimit:10;" points="
				269.603,102.478 270.92,109.724 265.486,105.113 			"/>
			<g>
				<path style="fill:#FFFFFF;stroke:#263238;stroke-linecap:round;stroke-linejoin:round;stroke-miterlimit:10;" d="
					M261.857,58.166c0,0,5.198,3.626,5.198,5.318c0,1.692,1.571,5.318,2.901,6.164c1.33,0.846,5.923,1.934,5.681,3.505
					c-0.242,1.571-1.934,3.505-1.934,3.505s0.121,7.252,0.242,9.065c0.121,1.813,0.725,3.022-1.209,3.868
					c-1.934,0.846-6.648,1.813-6.648,1.813l-2.538,13.9l-6.285-6.527c0,0-11.362-13.659-13.296-16.801
					c-1.934-3.143-1.33-6.89,1.209-9.065c2.538-2.176,12.571-14.867,12.691-15.23C257.989,57.32,261.857,58.166,261.857,58.166z"/>
				<path style="fill:#263238;" d="M267.356,69.126c0.429,0.79,0.496,1.583,0.148,1.772c-0.348,0.189-0.978-0.298-1.407-1.087
					c-0.429-0.79-0.495-1.583-0.148-1.772C266.297,67.849,266.926,68.336,267.356,69.126z"/>
				<path style="fill:none;stroke:#263238;stroke-linecap:round;stroke-linejoin:round;stroke-miterlimit:10;" d="M263.307,66.265
					c0,0,0.483-2.417,2.78-2.055"/>
			</g>
			<path style="fill:#263238;stroke:#263238;stroke-linecap:round;stroke-linejoin:round;stroke-miterlimit:10;" d="M253.275,75.451
				c0,0,1.934-2.659,2.297-3.626c0.363-0.967,0.121-3.022,0.121-3.022s3.384-5.681,4.835-7.857c1.451-2.176,3.505-3.868,2.659-6.648
				c-0.846-2.78-4.593-4.11-12.692-3.264c-8.098,0.846-13.9,4.231-17.889,7.978c-3.989,3.747-6.769,16.439-6.164,18.614
				c0.604,2.176,2.901,5.077,2.78,8.34c-0.121,3.264-3.505,4.11-3.505,4.11s-3.626,8.098,4.835,11.362
				c8.461,3.263,18.131,0.121,18.493,0c0.363-0.121,2.538,1.33,7.373,0.363c4.835-0.967,5.681-5.439,5.681-5.439
				s-2.538-0.846-4.714-3.989c-2.176-3.143-3.143-8.582-3.143-8.582s-5.681-0.725-7.011-3.505c-1.33-2.78-0.967-5.802,2.417-6.285
				C253.033,73.517,253.275,75.451,253.275,75.451z"/>
			<polygon style="fill:#92E3A9;stroke:#263238;stroke-linecap:round;stroke-linejoin:round;stroke-miterlimit:10;" points="
				257.263,98.779 264.497,103.96 261.039,110.712 253.134,100.007 			"/>
		</g>
		<g>
			<path style="fill:#FFFFFF;stroke:#263238;stroke-linecap:round;stroke-linejoin:round;stroke-miterlimit:10;" d="M279.987,63.605
				c0,0-0.363,4.835,0.242,5.56c0.604,0.725,5.077,8.824,5.077,8.824l9.065-1.451v-4.472c0,0,0.846-1.692,0.967-3.868
				c0.121-2.176-0.604-5.923-0.604-5.923l1.209-3.505L279.987,63.605z"/>
			<path style="fill:#FFFFFF;stroke:#263238;stroke-linecap:round;stroke-linejoin:round;stroke-miterlimit:10;" d="M283.855,71.583
				l-1.209-3.747l6.285-4.593c0,0,2.538-1.088,2.176,0.363c-0.363,1.451-3.747,4.231-3.747,4.231s2.538,2.78,2.417,3.747
				c-0.121,0.967-0.363,1.934-0.363,1.934"/>
			<g>
				<polygon style="fill:#8C8C8C;stroke:#263238;stroke-linecap:round;stroke-linejoin:round;stroke-miterlimit:10;" points="
					269.3,70.474 267.872,66.971 296.428,54.53 298.418,59.411 				"/>
				<g>
					<polygon style="fill:#8C8C8C;stroke:#263238;stroke-linecap:round;stroke-linejoin:round;stroke-miterlimit:10;" points="
						297.741,60.959 294.863,53.896 319.952,42.633 323.556,51.476 					"/>
				</g>
				
					<rect x="315.713" y="45.463" transform="matrix(0.3774 0.926 -0.926 0.3774 243.8241 -268.4732)" style="fill:#C4C4C4;stroke:#263238;stroke-linecap:round;stroke-linejoin:round;stroke-miterlimit:10;" width="11.725" height="3.264"/>
			</g>
			<g>
				<path style="fill:#FFFFFF;stroke:#263238;stroke-linecap:round;stroke-linejoin:round;stroke-miterlimit:10;" d="
					M279.987,61.671c0,0,1.571-3.868,2.78-3.989c1.209-0.121,4.23,0.604,3.868,1.209C286.273,59.496,279.987,61.671,279.987,61.671z
					"/>
				<path style="fill:#FFFFFF;stroke:#263238;stroke-linecap:round;stroke-linejoin:round;stroke-miterlimit:10;" d="
					M282.767,57.683c0,0,3.264-2.417,3.868-2.296c0.604,0.121,2.901,2.176,2.901,2.176l-2.901,1.33
					C286.635,58.891,283.493,57.32,282.767,57.683z"/>
				<path style="fill:#FFFFFF;stroke:#263238;stroke-linecap:round;stroke-linejoin:round;stroke-miterlimit:10;" d="
					M286.635,55.386c0,0,2.055-1.088,2.659-0.967c0.604,0.121,3.022,1.934,3.022,1.934l-2.78,1.209L286.635,55.386z"/>
				<path style="fill:#FFFFFF;stroke:#263238;stroke-linecap:round;stroke-linejoin:round;stroke-miterlimit:10;" d="
					M289.294,54.419c0,0,1.813-0.846,2.659-0.604c0.846,0.242,3.022,1.451,3.022,1.451l-2.659,1.088L289.294,54.419z"/>
			</g>
		</g>
	</g>
	
		<rect x="129.218" y="255.161" style="fill:#263238;stroke:#263238;stroke-linecap:round;stroke-linejoin:round;stroke-miterlimit:10;" width="263.216" height="8.109"/>
</g>
</svg>
